Cee Lo Green-Kung Fu Fighting(Kungfu Panda Music Video).

      Format : AVI
      Format/Info : Audio Video Interleave
      File size : 61.5 MiB
      Duration : 2mn 2s
      Overall bit rate : 4 209 Kbps
   Video #0
      ID : 0
      Format : MPEG-4 Visual
      Format profile : Simple@L3
      Format settings, BVOP : No
      Format settings, QPel : No
      Format settings, GMC : No warppoints
      Format settings, Matrix : Default (H.263)
      Codec ID : XVID
      Codec ID/Hint : XviD
      Duration : 2mn 2s
      Bit rate : 4 007 Kbps
      Width : 1 280 pixels
      Height : 720 pixels
      Display aspect ratio : 16:9
      Frame rate : 30.000 fps
      Resolution : 24 bits
      Colorimetry : 4:2:0
      Scan type : Progressive
      Bits/(Pixel*Frame) : 0.145
      Stream size : 58.5 MiB (95%)
      Writing library : ZJMedia MPEG Encoder
   Audio #1
      ID : 1
      Format : AC-3
      Format/Info : Audio Coding 3
      Codec ID : 2000
      Duration : 2mn 2s
      Bit rate mode : Constant
      Bit rate : 192 Kbps
      Channel(s) : 2 channels
      Channel positions : L R
      Sampling rate : 48.0 KHz
      Stream size : 2.81 MiB (5%)
      Alignment : Split accross interleaves
      Interleave, duration : 995 ms (29.85 video frames)